<?xml version="1.0" standalone="no"?>
<!DOCTYPE svg PUBLIC "-//W3C//DTD SVG 20010904//EN"
 "http://www.w3.org/TR/2001/REC-SVG-20010904/DTD/svg10.dtd">
<svg version="1.0" xmlns="http://www.w3.org/2000/svg"
 width="268.000000pt" height="268.000000pt" viewBox="0 0 268.000000 268.000000"
 preserveAspectRatio="xMidYMid meet">
<metadata>
Created by potrace 1.11, written by Peter Selinger 2001-2013
</metadata>
<g transform="translate(0.000000,268.000000) scale(0.100000,-0.100000)"
fill="#000000" stroke="none">
<path d="M1268 2673 c7 -3 16 -2 19 1 4 3 -2 6 -13 5 -11 0 -14 -3 -6 -6z"/>
<path d="M1676 2671 c-4 -5 3 -7 14 -4 23 6 26 13 6 13 -8 0 -17 -4 -20 -9z"/>
<path d="M1998 2673 c7 -3 16 -2 19 1 4 3 -2 6 -13 5 -11 0 -14 -3 -6 -6z"/>
<path d="M2538 2673 c22 -9 13 -23 -15 -23 -25 -1 -26 -2 -9 -11 30 -18 4 -25
-101 -28 -141 -4 -128 -11 20 -11 110 0 131 -3 164 -21 62 -34 64 -42 8 -36
-44 5 -143 -8 -105 -13 8 -1 2 -6 -15 -9 -30 -7 -29 -7 13 -15 30 -6 42 -12
38 -21 -3 -9 12 -19 44 -31 61 -22 70 -41 29 -58 -28 -12 -29 -14 -10 -19 12
-3 19 -1 15 4 -3 5 11 9 30 9 l36 0 0 145 0 145 -77 -1 c-43 0 -72 -3 -65 -6z"/>
<path d="M1023 2663 c9 -2 25 -2 35 0 9 3 1 5 -18 5 -19 0 -27 -2 -17 -5z"/>
<path d="M1370 2660 c-44 -6 -44 -6 -16 -15 17 -4 36 -4 45 2 9 5 34 8 56 7
28 -2 35 0 25 6 -16 11 -41 11 -110 0z"/>
<path d="M2443 2663 c9 -2 25 -2 35 0 9 3 1 5 -18 5 -19 0 -27 -2 -17 -5z"/>
<path d="M1208 2642 c26 -8 10 -21 -30 -25 -24 -2 0 -4 52 -4 52 -1 106 3 120
8 18 6 13 7 -21 3 -26 -3 -60 -2 -75 3 l-29 7 30 7 c25 6 23 7 -15 6 -24 0
-39 -2 -32 -5z"/>
<path d="M1078 2633 c6 -2 18 -2 25 0 6 3 1 5 -13 5 -14 0 -19 -2 -12 -5z"/>
<path d="M1460 2628 c0 -4 23 -8 52 -8 28 0 49 2 47 5 -9 8 -99 11 -99 3z"/>
<path d="M745 2620 l-20 -9 20 1 c11 0 31 4 45 8 l25 8 -25 0 c-14 0 -34 -3
-45 -8z"/>
<path d="M1403 2623 c9 -2 25 -2 35 0 9 3 1 5 -18 5 -19 0 -27 -2 -17 -5z"/>
<path d="M635 2610 l-30 -8 30 0 c17 0 39 3 50 8 l20 9 -20 -1 c-11 0 -33 -4
-50 -8z"/>
<path d="M1809 2596 c-4 -4 -280 -19 -379 -21 -111 -2 -150 -5 -150 -13 0 -4
28 -7 63 -5 511 20 677 30 685 37 6 7 -212 8 -219 2z"/>
<path d="M2043 2594 c7 -8 87 -7 95 0 3 3 -19 6 -48 6 -29 0 -51 -3 -47 -6z"/>
<path d="M0 2580 c0 -12 24 -12 60 0 21 7 19 8 -17 9 -24 1 -43 -3 -43 -9z"/>
<path d="M98 2583 c6 -2 18 -2 25 0 6 3 1 5 -13 5 -14 0 -19 -2 -12 -5z"/>
<path d="M1298 2583 c7 -3 16 -2 19 1 4 3 -2 6 -13 5 -11 0 -14 -3 -6 -6z"/>
<path d="M1120 2565 c-10 -12 -9 -15 4 -15 10 0 15 4 11 9 -3 6 12 12 32 14
l38 4 -36 1 c-22 1 -42 -4 -49 -13z"/>
<path d="M1016 2562 c-2 -4 12 -6 32 -4 56 5 62 10 15 11 -23 1 -44 -3 -47 -7z"/>
<path d="M757 2548 c-7 -4 23 -8 65 -8 42 0 79 4 82 9 6 10 -130 9 -147 -1z"/>
<path d="M930 2548 c0 -11 47 -10 55 1 3 5 -8 9 -25 9 -16 -1 -30 -5 -30 -10z"/>
<path d="M1300 2530 c-19 -4 12 -6 70 -3 58 3 107 7 109 9 8 7 -143 2 -179 -6z"/>
<path d="M22 2522 c-12 -2 -20 -8 -17 -13 6 -8 235 -2 244 7 2 2 -29 4 -70 5
-41 1 -87 2 -104 3 -16 1 -40 0 -53 -2z"/>
<path d="M290 2520 c-22 -7 -21 -8 13 -9 23 -1 36 3 32 9 -7 11 -10 11 -45 0z"/>
<path d="M408 2523 c7 -3 16 -2 19 1 4 3 -2 6 -13 5 -11 0 -14 -3 -6 -6z"/>
<path d="M1008 2513 c6 -2 18 -2 25 0 6 3 1 5 -13 5 -14 0 -19 -2 -12 -5z"/>
<path d="M1168 2503 c6 -2 18 -2 25 0 6 3 1 5 -13 5 -14 0 -19 -2 -12 -5z"/>
<path d="M1858 2503 c7 -3 16 -2 19 1 4 3 -2 6 -13 5 -11 0 -14 -3 -6 -6z"/>
<path d="M1935 2500 c27 -12 43 -12 25 0 -8 5 -22 9 -30 9 -10 0 -8 -3 5 -9z"/>
<path d="M2003 2504 c11 -12 265 -15 272 -4 4 7 -41 10 -136 10 -78 0 -139 -3
-136 -6z"/>
<path d="M2308 2503 c7 -3 16 -2 19 1 4 3 -2 6 -13 5 -11 0 -14 -3 -6 -6z"/>
<path d="M2428 2503 c7 -3 16 -2 19 1 4 3 -2 6 -13 5 -11 0 -14 -3 -6 -6z"/>
<path d="M1683 2493 c15 -2 37 -2 50 0 12 2 0 4 -28 4 -27 0 -38 -2 -22 -4z"/>
<path d="M198 2483 c6 -2 18 -2 25 0 6 3 1 5 -13 5 -14 0 -19 -2 -12 -5z"/>
<path d="M0 2471 c0 -4 11 -6 25 -3 32 6 32 12 0 12 -14 0 -25 -4 -25 -9z"/>
<path d="M1248 2473 c7 -3 16 -2 19 1 4 3 -2 6 -13 5 -11 0 -14 -3 -6 -6z"/>
<path d="M2368 2473 c7 -3 16 -2 19 1 4 3 -2 6 -13 5 -11 0 -14 -3 -6 -6z"/>
<path d="M958 2463 c6 -2 18 -2 25 0 6 3 1 5 -13 5 -14 0 -19 -2 -12 -5z"/>
<path d="M1618 2463 c6 -2 18 -2 25 0 6 3 1 5 -13 5 -14 0 -19 -2 -12 -5z"/>
<path d="M1728 2463 c7 -3 16 -2 19 1 4 3 -2 6 -13 5 -11 0 -14 -3 -6 -6z"/>
<path d="M858 2453 c12 -2 30 -2 40 0 9 3 -1 5 -23 4 -22 0 -30 -2 -17 -4z"/>
<path d="M1938 2453 c6 -2 18 -2 25 0 6 3 1 5 -13 5 -14 0 -19 -2 -12 -5z"/>
<path d="M1174 2435 c-3 -6 -27 -8 -57 -6 -28 1 -49 0 -45 -4 17 -17 324 -23
314 -6 -3 5 -34 9 -68 9 -89 0 -100 1 -95 10 3 4 -6 7 -20 7 -14 0 -27 -4 -29
-10z"/>
<path d="M1358 2443 c7 -3 16 -2 19 1 4 3 -2 6 -13 5 -11 0 -14 -3 -6 -6z"/>
<path d="M1749 2441 c7 -5 59 -9 115 -9 66 0 92 2 76 8 -34 11 -209 12 -191 1z"/>
<path d="M1425 2429 c-4 -6 -5 -12 -2 -15 2 -3 7 2 10 11 7 17 1 20 -8 4z"/>
<path d="M2005 2424 c19 -14 122 -17 130 -4 3 5 -1 7 -9 4 -8 -3 -21 -2 -28 2
-7 4 -34 8 -60 8 -38 1 -45 -1 -33 -10z"/>
<path d="M78 2413 c-69 -3 -78 -6 -78 -23 0 -13 9 -20 28 -23 l27 -4 -27 -2
c-16 0 -28 -5 -28 -11 0 -13 82 -13 149 0 29 5 118 14 198 19 80 6 148 13 152
17 3 4 -46 4 -109 0 -345 -18 -338 -18 -302 -2 18 9 36 15 40 15 24 -4 52 3
52 11 0 6 -6 9 -12 8 -7 -1 -48 -4 -90 -5z"/>
<path d="M198 2413 c7 -3 16 -2 19 1 4 3 -2 6 -13 5 -11 0 -14 -3 -6 -6z"/>
<path d="M238 2413 c6 -2 18 -2 25 0 6 3 1 5 -13 5 -14 0 -19 -2 -12 -5z"/>
<path d="M903 2413 c15 -2 37 -2 50 0 12 2 0 4 -28 4 -27 0 -38 -2 -22 -4z"/>
<path d="M1008 2413 c7 -3 16 -2 19 1 4 3 -2 6 -13 5 -11 0 -14 -3 -6 -6z"/>
<path d="M2220 2408 c0 -10 17 -9 50 2 21 7 20 8 -12 7 -21 -1 -38 -5 -38 -9z"/>
<path d="M2344 2409 c-2 -4 -25 -10 -51 -14 -27 -4 -55 -11 -64 -16 -10 -5
-21 -3 -29 4 -10 10 -10 8 -1 -11 9 -17 16 -20 29 -14 9 5 48 17 85 27 67 18
97 35 56 32 -11 -1 -22 -4 -25 -8z"/>
<path d="M593 2393 c9 -2 25 -2 35 0 9 3 1 5 -18 5 -19 0 -27 -2 -17 -5z"/>
<path d="M2525 2371 c-11 -5 -26 -6 -34 -3 -10 4 -12 -1 -7 -16 6 -17 1 -21
-34 -27 -22 -4 -40 -11 -40 -16 0 -5 -7 -9 -15 -9 -8 0 -15 -4 -15 -10 0 -11
54 -2 90 15 14 7 31 10 37 8 7 -3 16 2 19 11 3 9 14 16 23 16 14 0 14 2 1 10
-13 9 -13 11 0 20 18 11 3 12 -25 1z m-5 -36 c-7 -9 -15 -13 -17 -11 -7 7 7
26 19 26 6 0 6 -6 -2 -15z"/>
<path d="M2150 2360 c-11 -8 -9 -9 13 -8 15 1 27 6 27 10 0 11 -22 10 -40 -2z"/>
<path d="M897 2354 c-1 -1 -69 -5 -152 -9 -82 -4 -198 -12 -258 -19 -59 -6
-179 -11 -267 -10 -88 1 -160 -2 -160 -7 0 -4 -13 -6 -30 -4 l-30 4 0 -59 c0
-33 3 -60 8 -60 4 1 29 7 56 14 35 9 44 15 32 19 -10 4 -25 3 -34 -2 -11 -6
-21 -4 -29 4 -10 11 2 14 65 19 42 4 90 13 105 21 15 8 25 10 22 4 -5 -6 11
-8 47 -3 56 7 76 14 40 14 -11 0 -24 5 -28 11 -5 9 1 10 22 5 16 -4 32 -13 36
-19 6 -9 8 -9 8 -1 0 7 10 12 23 13 40 2 101 9 155 19 49 8 63 -1 17 -11 -11
-2 3 -2 30 1 28 2 53 10 57 16 4 6 8 7 8 1 0 -5 21 -11 48 -11 40 -2 42 -1 17
6 -39 10 -39 10 95 17 69 3 118 10 122 17 5 7 8 7 8 0 0 -11 215 -12 227 0 3
3 11 6 17 6 6 0 5 -4 -2 -9 -17 -11 68 -21 123 -15 22 3 49 5 60 4 11 0 93 0
183 -1 89 0 162 -3 162 -7 0 -4 -17 -16 -37 -26 -21 -10 -45 -22 -53 -27 -50
-30 -141 -55 -217 -61 -29 -3 -50 -1 -47 4 3 4 -7 8 -23 9 -15 0 -41 2 -58 4
-18 3 -25 1 -16 -4 8 -5 -6 -11 -41 -14 -29 -4 -73 -11 -98 -16 -36 -8 -24 -9
60 -6 58 3 173 7 255 11 195 7 230 18 285 89 23 30 49 56 58 58 9 2 -106 3
-256 2 -150 -2 -274 1 -277 5 -4 7 -332 10 -338 4z m-784 -51 c-7 -2 -19 -2
-25 0 -7 3 -2 5 12 5 14 0 19 -2 13 -5z"/>
<path d="M1850 2346 c0 -2 8 -10 18 -17 15 -13 16 -12 3 4 -13 16 -21 21 -21
13z"/>
<path d="M868 2313 c7 -3 16 -2 19 1 4 3 -2 6 -13 5 -11 0 -14 -3 -6 -6z"/>
<path d="M965 2309 c3 -4 15 -5 28 -2 17 4 19 2 7 -6 -8 -5 -11 -13 -7 -17 4
-4 15 0 24 9 12 10 29 14 48 10 23 -3 27 -2 15 6 -16 12 -122 12 -115 0z"/>
<path d="M1808 2313 c7 -3 16 -2 19 1 4 3 -2 6 -13 5 -11 0 -14 -3 -6 -6z"/>
<path d="M1854 2298 c-2 -3 -17 -9 -33 -13 -16 -3 -32 -13 -35 -22 -4 -9 -9
-188 -13 -397 l-6 -381 86 -195 c47 -107 106 -242 131 -300 26 -62 51 -106 60
-108 9 -2 16 -7 16 -12 0 -5 3 -15 6 -23 3 -8 -2 -22 -11 -30 -11 -12 -13 -22
-6 -34 7 -14 -2 -36 -40 -98 -27 -43 -49 -82 -49 -86 0 -3 12 -5 28 -3 15 2
55 6 90 10 l62 7 2 -49 1 -49 6 50 6 50 260 27 c143 14 261 27 263 27 1 1 2
330 2 732 0 588 -3 730 -13 726 -9 -3 -13 4 -12 22 0 17 -6 28 -20 33 -15 4
-12 6 13 7 17 1 32 6 32 11 0 6 -15 11 -32 11 l-33 2 35 8 c41 9 20 8 -250
-17 -96 -9 -200 -18 -230 -20 -49 -3 -121 -10 -319 -30 -58 -6 -63 -5 -59 12
2 10 14 25 28 32 24 13 24 13 2 9 -15 -4 -25 0 -29 10 -8 21 8 46 33 49 68 9
156 29 160 36 4 5 -23 8 -61 6 -37 -1 -69 -6 -71 -10z m16 -8 c0 -5 -5 -10
-11 -10 -5 0 -7 5 -4 10 3 6 8 10 11 10 2 0 4 -4 4 -10z m718 -87 c-10 -2 -28
-2 -40 0 -13 2 -5 4 17 4 22 1 32 -1 23 -4z m-105 -10 c-7 -2 -19 -2 -25 0 -7
3 -2 5 12 5 14 0 19 -2 13 -5z m117 -13 c0 -5 -5 -10 -11 -10 -5 0 -7 5 -4 10
3 6 8 10 11 10 2 0 4 -4 4 -10z m28 -27 c-2 -9 -8 -18 -15 -20 -7 -3 -9 3 -6
16 6 25 26 28 21 4z m-11 -63 c-29 -23 -38 -25 -34 -7 1 6 11 15 22 19 35 11
38 8 12 -12z m-87 -65 c-7 -9 -15 -13 -19 -10 -3 3 1 10 9 15 21 14 24 12 10
-5z m-212 -679 c-16 -17 -28 -11 -28 15 0 17 3 18 20 9 16 -9 18 -13 8 -24z
m-268 -106 c0 -5 -5 -10 -11 -10 -5 0 -7 5 -4 10 3 6 8 10 11 10 2 0 4 -4 4
-10z"/>
<path d="M1375 2280 c-3 -5 -16 -11 -28 -11 -14 -1 -16 -3 -6 -6 8 -2 28 3 45
12 18 9 23 15 12 15 -9 0 -20 -4 -23 -10z"/>
<path d="M2314 2277 c-8 -5 -22 -6 -30 -3 -8 3 -14 1 -14 -5 0 -6 -10 -8 -22
-4 -19 5 -20 4 -8 -5 12 -10 11 -11 -8 -7 -12 3 -20 1 -16 -4 3 -5 -8 -9 -25
-9 -16 0 -42 -5 -58 -12 -15 -6 -31 -11 -35 -10 -5 1 -8 -3 -8 -9 0 -6 6 -9
14 -6 38 15 104 29 133 29 18 0 33 4 33 9 0 5 9 9 19 9 11 0 21 4 23 10 2 5
15 11 31 12 15 1 27 6 27 10 0 9 -36 6 -56 -5z"/>
<path d="M1048 2273 c7 -3 16 -2 19 1 4 3 -2 6 -13 5 -11 0 -14 -3 -6 -6z"/>
<path d="M1011 2244 c-18 -8 -31 -17 -29 -19 10 -10 67 -5 108 9 l45 16 -38
-4 c-22 -3 -35 -1 -32 5 9 13 -14 10 -54 -7z"/>
<path d="M2085 2251 c-23 -3 -33 -9 -25 -12 8 -3 40 0 70 7 58 12 27 16 -45 5z"/>
<path d="M1933 2233 c-7 -2 -13 -11 -13 -19 0 -15 12 -16 50 -4 17 5 19 8 8 9
-10 1 -18 6 -18 11 0 11 -7 12 -27 3z"/>
<path d="M2020 2220 c-9 -6 -10 -10 -3 -10 6 0 15 5 18 10 8 12 4 12 -15 0z"/>
<path d="M800 2205 c-14 -8 -38 -14 -54 -15 -35 0 -107 -20 -121 -33 -6 -6 -1
-7 15 -2 14 4 45 9 70 11 34 3 40 2 25 -6 -14 -7 -6 -8 30 -3 28 3 56 6 62 6
7 0 25 13 40 29 l27 28 -35 0 c-19 -1 -45 -7 -59 -15z"/>
<path d="M1878 2213 c-10 -2 -18 -9 -18 -14 0 -13 13 -11 36 6 19 14 14 17
-18 8z"/>
<path d="M958 2203 c7 -3 16 -2 19 1 4 3 -2 6 -13 5 -11 0 -14 -3 -6 -6z"/>
<path d="M23 2182 c-17 -2 -23 -10 -23 -29 0 -25 1 -25 43 -18 39 8 68 11 125
14 15 1 21 5 16 14 -5 9 -4 9 5 1 14 -13 51 -7 51 8 0 6 -9 8 -20 5 -11 -3
-20 -2 -20 1 0 7 -140 10 -177 4z"/>
<path d="M1898 2173 c7 -3 16 -2 19 1 4 3 -2 6 -13 5 -11 0 -14 -3 -6 -6z"/>
<path d="M599 2165 c-3 -2 -52 -7 -110 -11 -57 -3 -134 -12 -171 -19 -37 -7
-68 -9 -70 -5 -5 13 -248 -33 -248 -47 0 -14 59 -11 140 6 25 5 81 15 125 21
44 7 87 14 95 18 8 3 40 6 71 7 31 2 62 6 69 10 7 4 16 1 21 -6 8 -12 10 -12
18 0 6 9 18 11 34 7 17 -4 27 -1 31 9 5 15 3 19 -5 10z"/>
<path d="M1675 2146 c-6 -7 -36 -46 -68 -85 -58 -71 -58 -71 -45 -108 7 -20
21 -38 31 -41 12 -3 17 -13 16 -36 -1 -25 94 -262 112 -280 2 -3 6 124 8 280
l3 284 -23 0 c-13 0 -29 -6 -34 -14z"/>
<path d="M740 2139 c-59 -13 -145 -48 -142 -59 3 -13 -15 -13 -23 0 -3 6 -16
10 -28 9 -21 0 -21 -1 -2 -9 17 -6 15 -8 -15 -13 -38 -6 -136 -17 -188 -21
-17 -1 -32 2 -32 7 0 8 -52 6 -200 -8 -30 -3 -19 1 30 12 97 21 79 27 -30 9
-47 -7 -91 -11 -98 -9 -8 4 -12 -6 -12 -30 l0 -34 92 3 c94 3 84 -1 -30 -12
l-62 -6 0 -797 0 -796 118 11 c64 6 151 15 193 19 l77 6 2 -123 c1 -68 3 -145
5 -173 2 -27 4 -67 4 -87 1 -21 6 -38 12 -38 8 0 10 26 5 93 -3 50 -6 146 -7
212 l-1 120 53 7 c30 4 97 10 149 14 52 3 98 8 101 10 3 2 5 -11 4 -29 -3 -35
12 -84 21 -74 4 3 3 14 -1 24 -13 30 -15 53 -5 53 5 0 7 7 4 15 -5 11 1 15 18
15 24 0 25 -2 37 -129 13 -122 29 -190 32 -131 1 14 1 29 0 33 -6 31 -12 77
-14 105 -2 30 -1 31 11 15 12 -16 14 -9 9 49 -2 38 -1 68 4 68 5 0 9 -18 9
-39 0 -46 9 -73 21 -66 9 6 28 -56 30 -95 0 -16 3 -19 6 -10 4 8 12 20 18 27
19 18 53 -23 61 -74 3 -24 9 -41 13 -39 3 2 6 -20 6 -50 0 -30 -3 -54 -7 -54
-4 0 -6 -16 -5 -35 1 -20 7 -35 15 -35 15 0 15 3 13 108 -1 67 1 82 14 82 8 0
14 -3 13 -7 -2 -5 2 -21 8 -38 19 -51 35 -126 29 -136 -4 -5 4 -9 16 -9 20 0
21 3 16 45 -4 25 -2 47 3 50 6 3 10 20 10 36 0 17 -4 28 -9 25 -5 -4 -7 13 -5
36 3 30 2 37 -4 23 -7 -15 -11 -5 -16 40 -4 33 -8 68 -9 78 -1 9 -3 17 -4 17
-2 0 -14 -25 -28 -55 -25 -56 -30 -61 -54 -46 -11 7 -11 15 -1 45 9 28 9 40 0
51 -7 8 -9 27 -5 47 4 19 2 120 -4 224 -6 104 -12 220 -12 259 -2 60 -10 89
-59 210 -88 216 -261 619 -270 630 -11 14 -33 94 -36 134 -3 29 5 44 54 100
32 36 63 73 69 81 10 14 -4 14 -130 3 -78 -6 -180 -16 -227 -22 -46 -6 -107
-11 -135 -10 -39 1 -23 5 70 20 66 11 154 21 195 24 79 5 181 19 240 34 l35 9
-35 2 -35 2 35 12 c19 7 46 17 59 23 l25 10 -25 4 c-13 3 -40 2 -59 -2z m200
-1699 c0 -45 -16 -53 -30 -14 -15 38 -12 54 10 54 17 0 20 -7 20 -40z m-70
-10 c0 -22 -2 -40 -4 -40 -2 0 -6 18 -8 40 -2 22 0 40 4 40 5 0 8 -18 8 -40z
m-687 -17 c-7 -2 -19 -2 -25 0 -7 3 -2 5 12 5 14 0 19 -2 13 -5z m-110 -10
c-7 -2 -21 -2 -30 0 -10 3 -4 5 12 5 17 0 24 -2 18 -5z m971 -178 c3 -8 1 -15
-4 -15 -6 0 -10 7 -10 15 0 8 2 15 4 15 2 0 6 -7 10 -15z"/>
<path d="M1375 2143 c-16 -2 -66 -10 -110 -18 -44 -7 -110 -17 -148 -20 -37
-4 -65 -10 -63 -14 3 -4 -3 -7 -12 -8 -9 -1 -31 -5 -48 -8 -24 -5 -31 -3 -31
9 0 19 15 23 107 35 l65 8 -55 2 c-30 0 -72 -2 -93 -6 l-39 -6 7 -146 c4 -80
9 -147 10 -149 2 -2 128 15 280 37 152 23 281 41 286 41 5 0 0 16 -12 36 -14
25 -17 40 -10 48 7 9 7 16 -1 24 -9 9 0 26 35 72 26 33 47 62 47 65 0 5 -167
4 -215 -2z"/>
<path d="M875 2110 c-10 -11 -13 -20 -7 -20 20 0 8 -25 -14 -30 -12 -3 -62
-54 -113 -114 -92 -108 -100 -128 -70 -160 6 -7 239 19 245 27 2 4 -16 311
-19 314 -2 2 -12 -6 -22 -17z"/>
<path d="M428 2073 c7 -3 16 -2 19 1 4 3 -2 6 -13 5 -11 0 -14 -3 -6 -6z"/>
<path d="M355 2060 c-8 -13 5 -13 25 0 13 8 13 10 -2 10 -9 0 -20 -4 -23 -10z"/>
<path d="M1286 1815 c-115 -18 -233 -36 -262 -40 l-54 -6 0 -62 c0 -34 5 -148
12 -254 l12 -191 182 -4 c100 -2 186 -6 189 -10 4 -4 5 -14 2 -23 -5 -13 -34
-15 -188 -15 l-182 0 6 -117 c6 -114 8 -123 63 -258 31 -77 58 -142 59 -144 2
-2 142 25 310 60 l307 64 -6 125 c-3 69 -6 158 -6 197 l0 73 -162 2 c-145 3
-163 5 -166 20 -3 16 12 18 160 20 l163 3 0 100 0 100 -82 195 -82 195 -33 2
c-18 0 -127 -14 -242 -32z m403 -390 c7 -11 -5 0 -28 24 -22 24 -41 48 -41 53
0 9 45 -41 69 -77z"/>
<path d="M805 1742 c-55 -8 -102 -16 -104 -18 -2 -2 37 -99 87 -216 133 -314
125 -297 129 -270 3 12 8 22 13 22 16 0 17 41 4 241 -7 112 -13 216 -14 232 0
15 -3 26 -7 26 -5 -1 -53 -8 -108 -17z"/>
<path d="M1771 1308 c-1 -45 2 -58 14 -58 8 0 15 -9 15 -20 0 -11 -7 -20 -15
-20 -13 0 -14 -25 -9 -187 4 -104 8 -190 10 -192 8 -8 194 31 194 41 0 5 -25
66 -56 136 -87 199 -142 326 -147 342 -3 8 -6 -11 -6 -42z"/>
<path d="M923 1214 c-8 -4 -7 -16 6 -45 25 -54 26 -54 23 2 -4 49 -6 52 -29
43z"/>
<path d="M1898 796 l-108 -21 0 -82 c0 -94 5 -113 30 -113 11 0 20 -9 23 -22
l4 -23 2 22 c0 12 10 27 20 33 11 5 36 37 57 70 20 33 40 57 45 55 4 -3 11 0
15 6 5 8 3 9 -6 4 -8 -5 -11 -3 -8 6 3 8 11 14 19 14 8 0 14 9 14 20 0 11 3
25 8 32 13 20 -5 20 -115 -1z"/>
<path d="M1025 670 c3 -74 8 -159 12 -189 l6 -54 17 44 c9 24 24 60 33 80 17
35 17 36 -19 125 -20 49 -40 98 -45 109 -6 13 -7 -30 -4 -115z"/>
<path d="M1505 715 c-110 -23 -234 -50 -276 -59 l-77 -17 0 -47 c-2 -68 -6
-101 -13 -96 -4 2 -14 -13 -22 -34 -8 -20 -11 -38 -6 -40 4 -2 55 6 111 17 57
11 184 34 283 51 259 44 239 36 243 95 2 28 1 78 -3 113 -5 49 -10 62 -23 61
-9 0 -107 -20 -217 -44z m75 -179 c0 -7 -9 -16 -20 -19 -13 -3 -20 0 -20 10 0
8 5 11 10 8 6 -3 10 -1 10 4 0 6 5 11 10 11 6 0 10 -6 10 -14z m-120 0 c0 -11
-19 -15 -25 -6 -3 5 1 10 9 10 9 0 16 -2 16 -4z m-85 -16 c-3 -5 -10 -10 -16
-10 -5 0 -9 5 -9 10 0 6 7 10 16 10 8 0 12 -4 9 -10z m45 -10 c0 -11 -4 -20
-9 -20 -6 0 -9 9 -8 20 1 11 5 20 9 20 4 0 8 -9 8 -20z m-140 0 c0 -5 -3 -9
-7 -9 -27 4 -33 -2 -23 -21 9 -17 8 -20 -10 -20 -11 0 -20 5 -20 11 0 5 5 7
11 3 7 -4 10 -1 7 7 -3 8 -11 13 -17 12 -6 -2 -11 1 -11 6 0 9 21 16 58 20 6
0 12 -3 12 -9z m38 -15 c1 -14 -4 -25 -11 -25 -6 0 -12 11 -12 25 0 14 5 25
10 25 6 0 12 -11 13 -25z"/>
<path d="M2002 520 c0 -19 2 -27 5 -17 2 9 2 25 0 35 -3 9 -5 1 -5 -18z"/>
<path d="M1699 468 c-36 -9 -36 -10 -29 -50 4 -22 12 -43 18 -47 5 -3 13 -16
17 -29 18 -60 64 17 57 96 -4 45 -6 45 -63 30z"/>
<path d="M2011 444 c0 -21 4 -48 9 -59 6 -13 7 -1 3 35 -7 66 -13 78 -12 24z"/>
<path d="M1597 400 c3 -30 7 -57 9 -59 7 -8 2 64 -6 89 -6 16 -7 6 -3 -30z"/>
<path d="M680 417 c6 -16 7 -33 4 -39 -4 -7 -2 -8 4 -4 16 10 15 28 -3 52 -14
18 -14 17 -5 -9z"/>
<path d="M544 337 c5 -99 15 -144 17 -71 0 31 2 35 9 19 6 -13 7 2 3 39 -3 33
-13 71 -20 85 -13 23 -14 16 -9 -72z m13 11 c-3 -8 -6 -5 -6 6 -1 11 2 17 5
13 3 -3 4 -12 1 -19z"/>
<path d="M1490 408 c4 -40 -2 -54 -10 -28 -5 17 -8 -2 -7 -55 0 -73 1 -75 6
-25 5 45 7 50 13 30 4 -14 8 -35 8 -47 0 -12 5 -25 11 -28 7 -5 10 9 9 41 -1
27 -1 58 0 69 2 17 3 16 10 -5 8 -25 8 -25 9 -2 1 13 -6 30 -14 39 -8 8 -13
19 -10 24 4 5 -1 9 -10 9 -11 0 -16 -8 -15 -22z"/>
<path d="M1852 410 c0 -14 2 -19 5 -12 2 6 2 18 0 25 -3 6 -5 1 -5 -13z"/>
<path d="M2143 365 c0 -38 2 -53 4 -32 2 20 2 52 0 70 -2 17 -4 1 -4 -38z"/>
<path d="M1384 364 c3 -26 6 -72 7 -103 1 -52 2 -54 10 -21 10 43 0 170 -14
170 -6 0 -7 -18 -3 -46z"/>
<path d="M1324 358 c4 -24 7 -71 7 -105 1 -35 5 -60 10 -57 5 3 9 -2 9 -11 0
-9 -3 -14 -7 -12 -5 3 -4 -35 1 -84 5 -49 13 -89 18 -89 8 0 3 223 -8 304 -4
34 -3 37 11 26 18 -15 19 -10 3 27 -6 15 -11 31 -10 36 1 4 -8 7 -19 7 -19 0
-21 -4 -15 -42z"/>
<path d="M1268 383 c6 -2 18 -2 25 0 6 3 1 5 -13 5 -14 0 -19 -2 -12 -5z"/>
<path d="M1901 374 c0 -11 3 -14 6 -6 3 7 2 16 -1 19 -3 4 -6 -2 -5 -13z"/>
<path d="M132 360 c0 -14 2 -19 5 -12 2 6 2 18 0 25 -3 6 -5 1 -5 -13z"/>
<path d="M1177 373 c-21 -3 -27 -9 -22 -22 5 -17 17 -207 19 -301 1 -43 3 -45
32 -48 l30 -3 0 191 c-1 163 -3 190 -16 188 -8 0 -28 -3 -43 -5z m41 -198 c0
-16 -2 -15 -8 5 -4 14 -8 34 -8 45 0 16 2 15 8 -5 4 -14 8 -34 8 -45z"/>
<path d="M1291 355 c-1 -17 -3 -18 -11 -5 -7 11 -9 4 -9 -25 1 -22 4 -31 6
-20 3 11 10 23 15 26 6 4 8 15 5 25 -4 18 -5 18 -6 -1z"/>
<path d="M687 313 c3 -27 7 -75 10 -107 3 -36 8 -54 13 -46 8 13 5 76 -7 140
-3 19 -7 38 -7 42 -1 3 -4 9 -7 12 -3 4 -4 -15 -2 -41z"/>
<path d="M1099 343 c-1 -10 -1 -22 0 -26 1 -4 2 -19 3 -32 1 -14 6 -25 10 -25
4 0 8 -12 8 -26 0 -14 4 -23 9 -19 6 3 6 18 1 37 -5 17 -7 35 -4 39 3 5 0 18
-7 30 -9 17 -8 23 2 30 11 7 10 9 -3 9 -10 0 -19 -8 -19 -17z"/>
<path d="M1420 346 c0 -8 5 -18 10 -21 6 -3 10 1 10 9 0 8 -4 18 -10 21 -5 3
-10 -1 -10 -9z"/>
<path d="M1800 340 c-6 -12 -9 -33 -7 -48 3 -24 4 -23 6 8 3 33 4 33 11 10 7
-22 8 -21 9 13 1 42 -3 46 -19 17z"/>
<path d="M831 314 c0 -11 3 -14 6 -6 3 7 2 16 -1 19 -3 4 -6 -2 -5 -13z"/>
<path d="M1852 270 c0 -25 3 -70 8 -100 7 -54 7 -54 8 25 0 44 -3 89 -8 100
-6 15 -9 9 -8 -25z"/>
<path d="M1903 270 c0 -25 2 -35 4 -22 2 12 2 32 0 45 -2 12 -4 2 -4 -23z"/>
<path d="M2052 275 c-1 -16 8 -46 18 -65 l20 -35 -6 40 c-4 22 -10 42 -14 45
-4 3 -10 14 -13 25 -3 14 -5 11 -5 -10z"/>
<path d="M443 245 c0 -22 2 -30 4 -17 2 12 2 30 0 40 -3 9 -5 -1 -4 -23z"/>
<path d="M1 254 c0 -11 3 -14 6 -6 3 7 2 16 -1 19 -3 4 -6 -2 -5 -13z"/>
<path d="M1443 220 c0 -30 2 -43 4 -27 2 15 2 39 0 55 -2 15 -4 2 -4 -28z"/>
<path d="M570 238 c0 -9 -4 -18 -10 -20 -6 -2 -7 -24 -3 -55 3 -29 9 -50 14
-48 4 3 10 -1 12 -7 3 -7 6 -3 6 9 1 12 -3 25 -9 28 -5 3 -10 12 -10 18 0 8 3
7 9 -2 5 -8 7 5 4 35 -6 48 -13 73 -13 42z"/>
<path d="M1686 235 c-3 -8 -1 -15 4 -15 6 0 10 7 10 15 0 8 -2 15 -4 15 -2 0
-6 -7 -10 -15z"/>
<path d="M45 231 c-3 -5 -1 -12 5 -16 5 -3 10 1 10 9 0 18 -6 21 -15 7z"/>
<path d="M1511 233 c-1 -6 -4 -20 -7 -30 -5 -17 -5 -17 6 0 6 10 9 23 6 30 -3
9 -5 9 -5 0z"/>
<path d="M2120 240 c-1 -3 -4 -15 -5 -28 -1 -15 1 -20 7 -14 6 6 8 18 5 28 -3
11 -6 17 -7 14z"/>
<path d="M753 185 c0 -27 2 -38 4 -22 2 15 2 37 0 50 -2 12 -4 0 -4 -28z"/>
<path d="M1372 190 c0 -14 2 -19 5 -12 2 6 2 18 0 25 -3 6 -5 1 -5 -13z"/>
<path d="M894 170 c3 -19 8 -65 12 -102 4 -48 10 -68 20 -68 15 0 18 77 3 95
-12 16 -19 65 -8 65 5 0 9 5 9 12 0 6 -3 8 -7 5 -3 -4 -12 1 -20 11 -13 15
-14 13 -9 -18z"/>
<path d="M1399 174 c-5 -92 -3 -138 8 -157 10 -18 11 -3 6 78 -6 101 -12 133
-14 79z"/>
<path d="M451 164 c0 -11 3 -14 6 -6 3 7 2 16 -1 19 -3 4 -6 -2 -5 -13z"/>
<path d="M493 140 c0 -25 2 -35 4 -22 2 12 2 32 0 45 -2 12 -4 2 -4 -23z"/>
<path d="M1131 164 c0 -11 3 -14 6 -6 3 7 2 16 -1 19 -3 4 -6 -2 -5 -13z"/>
<path d="M1900 171 c0 -6 5 -13 10 -16 6 -3 10 1 10 9 0 9 -4 16 -10 16 -5 0
-10 -4 -10 -9z"/>
<path d="M1990 161 c0 -5 5 -13 10 -16 6 -3 10 -2 10 4 0 5 -4 13 -10 16 -5 3
-10 2 -10 -4z"/>
<path d="M1771 134 c0 -11 3 -14 6 -6 3 7 2 16 -1 19 -3 4 -6 -2 -5 -13z"/>
<path d="M1813 115 c0 -22 2 -30 4 -17 2 12 2 30 0 40 -3 9 -5 -1 -4 -23z"/>
<path d="M1509 108 c4 -28 6 -29 9 -9 2 13 0 27 -5 32 -6 6 -7 -3 -4 -23z"/>
<path d="M1552 120 c0 -14 2 -19 5 -12 2 6 2 18 0 25 -3 6 -5 1 -5 -13z"/>
<path d="M704 84 c3 -26 6 -55 6 -65 0 -11 4 -19 8 -19 5 0 7 19 6 42 -2 24
-3 53 -3 66 -1 12 -6 22 -12 22 -8 0 -10 -15 -5 -46z"/>
<path d="M762 100 c0 -19 2 -27 5 -17 2 9 2 25 0 35 -3 9 -5 1 -5 -18z"/>
<path d="M822 85 c0 -22 3 -51 7 -65 7 -22 8 -20 12 17 2 23 1 39 -3 37 -3 -2
-9 8 -11 23 -3 20 -4 16 -5 -12z"/>
<path d="M850 115 c0 -5 5 -17 10 -25 5 -8 10 -10 10 -5 0 6 -5 17 -10 25 -5
8 -10 11 -10 5z"/>
<path d="M1707 89 c-3 -12 0 -34 8 -48 14 -25 14 -25 10 17 -4 51 -10 61 -18
31z"/>
<path d="M1782 90 c0 -14 2 -19 5 -12 2 6 2 18 0 25 -3 6 -5 1 -5 -13z"/>
<path d="M1866 97 c3 -10 9 -15 12 -12 3 3 0 11 -7 18 -10 9 -11 8 -5 -6z"/>
<path d="M1913 75 c0 -22 2 -30 4 -17 2 12 2 30 0 40 -3 9 -5 -1 -4 -23z"/>
<path d="M564 60 c4 -25 12 -49 18 -55 7 -7 8 4 3 35 -4 25 -12 50 -17 55 -7
7 -8 -4 -4 -35z"/>
<path d="M140 56 c0 -31 6 -34 13 -6 3 11 1 23 -4 26 -5 3 -9 -6 -9 -20z"/>
<path d="M1490 40 c0 -22 3 -40 8 -40 4 0 6 18 4 40 -2 22 -6 40 -8 40 -2 0
-4 -18 -4 -40z"/>
<path d="M311 34 c0 -11 3 -14 6 -6 3 7 2 16 -1 19 -3 4 -6 -2 -5 -13z"/>
<path d="M1792 25 c0 -17 2 -22 5 -12 2 9 2 23 0 30 -3 6 -5 -1 -5 -18z"/>
<path d="M771 14 c0 -11 3 -14 6 -6 3 7 2 16 -1 19 -3 4 -6 -2 -5 -13z"/>
<path d="M1321 14 c0 -11 3 -14 6 -6 3 7 2 16 -1 19 -3 4 -6 -2 -5 -13z"/>
</g>
</svg>
